<svg fill="none" viewBox="0 0 24 24" xmlns="http://www.w3.org/2000/svg">
  <defs>
    <linearGradient id="gradient" x1="12" y1="0" x2="12" y2="24" gradientUnits="userSpaceOnUse">
      <stop offset="0.259336" stop-color="#FFDB6E"/>
      <stop offset="1" stop-color="#FFBC5E"/>
    </linearGradient>
  </defs>
  <g>
    <path d="M1,16V8A1,1,0,0,1,3,8v8a1,1,0,0,1-2,0Zm7,4V4A1,1,0,0,0,6,4V20a1,1,0,0,0,2,0Zm5,2V2a1,1,0,0,0-2,0V22a1,1,0,0,0,2,0Zm5-2V4a1,1,0,0,0-2,0V20a1,1,0,0,0,2,0ZM22,7a1,1,0,0,0-1,1v8a1,1,0,0,0,2,0V8A1,1,0,0,0,22,7Z" fill="url(#gradient)"/>
  </g>
</svg>
