<svg viewBox="0 -0.25 79.5 79.5" xmlns="http://www.w3.org/2000/svg" fill="none">
  <defs>
    <linearGradient id="paint0_linear" x1="39.75" y1="0" x2="39.75" y2="79.5" gradientUnits="userSpaceOnUse">
      <stop offset="0.259336" stop-color="#FFDB6E" />
      <stop offset="1" stop-color="#FFBC5E" />
    </linearGradient>
  </defs>
  <g id="SVGRepo_iconCarrier">
    <g id="Coding" transform="translate(-80.251 -390.392)">
      <g id="Group_30" data-name="Group 30">
        <g id="Group_29" data-name="Group 29">
          <g id="Group_28" data-name="Group 28">
            <g id="Group_27" data-name="Group 27">
              <path id="Path_64" data-name="Path 64" d="M159.751,398.392V448.3a8.011,8.011,0,0,1-8,8H135.08l1.09,7.09h1.46a3,3,0,0,1,0,6H102.37a3,3,0,1,1,0-6h1.46l1.09-7.09H88.251a8.01,8.01,0,0,1-8-8v-49.91a8.01,8.01,0,0,1,8-8h63.5A8.011,8.011,0,0,1,159.751,398.392Zm-6,49.91v-8.111h-67.5V448.3a2.025,2.025,0,0,0,2,2h63.5A2.026,2.026,0,0,0,153.751,448.3Zm0-14.111v-35.8a2.026,2.026,0,0,0-2-2h-63.5a2.024,2.024,0,0,0-2,2v35.8H98.81l-4.17-1.249a3,3,0,0,1-2.139-2.881v-6.8a3.01,3.01,0,0,1,2.139-2.88l5.51-1.651c.061-.17.13-.329.21-.5l-2.73-5.069a2.992,2.992,0,0,1,.52-3.54l4.811-4.811a2.992,2.992,0,0,1,3.54-.52l5.069,2.73c.17-.079.33-.139.5-.21l1.65-5.509a3,3,0,0,1,2.88-2.14h6.8a3,3,0,0,1,2.88,2.14l1.65,5.509c.17.071.33.131.5.21l5.071-2.73a3,3,0,0,1,3.539.52l4.81,4.821a2.987,2.987,0,0,1,.52,3.54l-2.72,5.07c.07.16.14.329.2.489l5.51,1.651a3.012,3.012,0,0,1,2.141,2.88v6.8a3.005,3.005,0,0,1-2.141,2.881l-4.169,1.249Zm-12.25-6.36v-2.339l-4.821-1.451a2.948,2.948,0,0,1-2-1.97,15.4,15.4,0,0,0-1.05-2.53,2.976,2.976,0,0,1,.01-2.81l2.39-4.44-1.66-1.659-4.44,2.389a2.971,2.971,0,0,1-2.81.01,16.278,16.278,0,0,0-2.53-1.049,2.952,2.952,0,0,1-1.97-2l-1.45-4.82h-2.34l-1.45,4.82a2.966,2.966,0,0,1-1.98,2,15.683,15.683,0,0,0-2.52,1.059,3.019,3.019,0,0,1-2.82-.02l-4.44-2.389-1.65,1.659,2.39,4.431a2.994,2.994,0,0,1,.01,2.819,15.487,15.487,0,0,0-1.05,2.53,2.983,2.983,0,0,1-2,1.97L98.5,425.492v2.339l4.819,1.45a3,3,0,0,1,2,1.981,15.958,15.958,0,0,0,1.05,2.509,2.387,2.387,0,0,1,.16.42h5.62a10.89,10.89,0,1,1,15.7,0h5.611c.049-.139.1-.269.159-.41a15.674,15.674,0,0,0,1.06-2.519,2.964,2.964,0,0,1,2-1.981Z" fill="url(#paint0_linear)"></path>
            </g>
          </g>
        </g>
      </g>
    </g>
  </g>
</svg>
