<?xml version="1.0" encoding="utf-8"?>
<svg height="200px" width="200px" version="1.1" id="Layer_1" xmlns="http://www.w3.org/2000/svg"
     xmlns:xlink="http://www.w3.org/1999/xlink" viewBox="0 0 512 512" xml:space="preserve" fill="none">
    <defs>
        <linearGradient id="paint0_linear" x1="256" y1="0" x2="256" y2="512" gradientUnits="userSpaceOnUse">
            <stop offset="0.259336" stop-color="#FFDB6E"/>
            <stop offset="1" stop-color="#FFBC5E"/>
        </linearGradient>
    </defs>

    <g fill="url(#paint0_linear)">
        <g id="SVGRepo_bgCarrier" stroke-width="0"></g>
        <g id="SVGRepo_tracerCarrier" stroke-linecap="round" stroke-linejoin="round"></g>
        <g id="SVGRepo_iconCarrier">
            <g>
                <g>
                    <g>
                        <path d="M503.467,221.867h-85.333v-73.267l19.567,19.567c1.664,1.664,3.849,2.5,6.033,2.5c2.185,0,4.369-0.836,6.033-2.5 c3.337-3.337,3.337-8.73,0-12.066l-34.125-34.125l-0.017-0.017l-16.137-16.137c2.825-3.362,4.437-7.509,4.437-11.955 c0-5.001-1.954-9.694-5.487-13.227l-9.745-9.754c-7.305-7.287-19.149-7.279-26.453,0l-9.745,9.754 c-3.533,3.533-5.487,8.226-5.487,13.227c0,5,1.954,9.694,5.487,13.227l9.745,9.754c3.652,3.644,8.431,5.461,13.227,5.461 c4.275,0,8.491-1.527,11.955-4.42l13.645,13.645v90.334H332.8v-59.733c0-24.644-12.015-47.974-32.136-62.396 c-2.961-2.133-6.972-2.133-9.941-0.009c-5.436,3.9-11.46,6.682-17.732,8.508l15.71,23.561c1.826,2.748,1.911,6.298,0.213,9.131 l-25.6,42.667c-1.536,2.569-4.318,4.139-7.313,4.139c-2.995,0-5.777-1.57-7.313-4.139l-25.6-42.667 c-1.698-2.833-1.613-6.383,0.213-9.131l15.71-23.561c-6.272-1.826-12.297-4.608-17.732-8.508 c-2.978-2.125-6.98-2.125-9.941,0.009c-20.122,14.421-32.137,37.751-32.137,62.396v59.733h-68.267v-90.334l13.645-13.645 c3.465,2.893,7.68,4.42,11.955,4.42c4.796,0,9.574-1.818,13.227-5.461l9.745-9.754c3.533-3.533,5.487-8.226,5.487-13.227 c0-5.001-1.954-9.694-5.487-13.227l-9.745-9.754c-7.305-7.287-19.149-7.279-26.453,0l-9.745,9.754 c-3.533,3.533-5.487,8.226-5.487,13.227c0,4.446,1.613,8.593,4.437,11.955l-16.137,16.137l-0.017,0.017L62.234,156.1 c-3.336,3.337-3.336,8.73,0,12.066c1.664,1.664,3.849,2.5,6.033,2.5s4.369-0.836,6.033-2.5l19.567-19.567v73.267H8.533 C3.814,221.867,0,225.69,0,230.4v34.133c0,4.71,3.814,8.533,8.533,8.533h8.533v230.4c0,4.71,3.814,8.533,8.533,8.533h460.8 c4.719,0,8.533-3.823,8.533-8.533v-230.4h8.533c4.719,0,8.533-3.823,8.533-8.533V230.4 C512,225.69,508.186,221.867,503.467,221.867z M256,477.867c-51.755,0-93.867-42.112-93.867-93.867 c0-51.755,42.112-93.867,93.867-93.867c51.755,0,93.867,42.112,93.867,93.867C349.867,435.755,307.755,477.867,256,477.867z M494.933,256H486.4H25.6h-8.533v-17.067h170.667h136.533h170.667V256z"></path>
                        <path d="M256,102.4c28.237,0,51.2-22.963,51.2-51.2S284.237,0,256,0s-51.2,22.963-51.2,51.2S227.763,102.4,256,102.4z"></path>
                        <polygon points="240.496,136.775 256.001,162.614 271.506,136.775 259.969,119.469 252.033,119.469 "></polygon>
                        <path d="M264.533,392.533v65.237c12.749-8.311,26.965-33.229,29.167-65.237H264.533z"></path>
                        <path d="M264.533,310.226v65.237H293.7C291.499,343.455,277.282,318.537,264.533,310.226z"></path>
                        <path d="M247.465,375.467v-65.237c-12.749,8.311-26.965,33.229-29.167,65.237H247.465z"></path>
                        <path d="M293.205,316.865c9.583,15.514,16.222,36.318,17.587,58.598h21.504C329.489,350.239,314.428,328.675,293.205,316.865z"></path>
                        <path d="M247.467,457.774v-65.237H218.3C220.501,424.545,234.718,449.463,247.467,457.774z"></path>
                        <path d="M218.795,316.865c-21.222,11.81-36.284,33.374-39.091,58.598h21.504C202.573,353.183,209.212,332.378,218.795,316.865z"></path>
                        <path d="M179.703,392.533c2.807,25.225,17.869,46.788,39.091,58.598c-9.583-15.514-16.222-36.318-17.587-58.598H179.703z"></path>
                        <path d="M293.205,451.135c21.222-11.81,36.284-33.374,39.091-58.598h-21.504C309.427,414.817,302.788,435.622,293.205,451.135z"></path>
                    </g>
                </g>
            </g>
        </g>
    </g>
</svg>
